<svg xmlns="http://www.w3.org/2000/svg" viewBox="0 0 583.78 204.28"><defs><style>.cls-1{fill:#7fb7d6;}.cls-2{fill:#ffcb4f;}.cls-3{fill:#168ad9;}.cls-4{fill:#fff;}</style></defs><g id="Layer_2" data-name="Layer 2"><g id="Layer_1-2" data-name="Layer 1"><path class="cls-1" d="M141.59,100.47c-.62,1.74-2.33,1.86-4.11,1.25-1.15-.4-3.12-.92-3.51-.43a5.38,5.38,0,0,0-1.12,4.14c.3,1.11,2,1.84,3.14,2.66.22.17.69,0,1,0,1.59,0,2.73.65,2.49,2.39s-1.43,2.09-3,1.9c-3.38-.38-4.59.58-5.12,4s-3.27,5-6.61,3.89c-2.76-.94-3.51-.26-3.42,2.56a7.63,7.63,0,0,1-.93,4c-.91,1.53-.76,2.38.88,2.81s2.49,1.62,1.82,3.17a3,3,0,0,1-2.49,1.37c-1.72-.25-2.23-1.62-1.69-3.3s-.2-2.35-1.86-2.25a4.1,4.1,0,0,1-4.7-3.19,7.4,7.4,0,0,1,1-5c1.24-2,3.52-1.79,5.63-1s3.32,0,3-2.3,0-4,1.89-5.25,3.94-.86,6.1.21c.95.49,2.77-.28,4-.92a2.58,2.58,0,0,0,.42-2.48c-1-.91-2.66-2.18-3.73-1.91-2.38.64-4.43.94-6.72-.34-1.85-1-3.73.48-3.63,2.67.25,5.46-2.64,7.83-7.93,6.51a2.72,2.72,0,0,0-3.54,1.49,2.64,2.64,0,0,0-.19,1.21c-.08,2.38-.86,4.18-3.29,4.58s-3.35-1.25-4.35-3.22c-1.24-2.56-4.09-1.61-6.29-1.94-.51-.08-1.14.46-1.55.3-.82-.34-2-.84-2.15-1.48s.68-1.63,1.31-2.23c1.66-1.55,3.73-2.76,5-4.56.53-.75-.1-3.11-1-3.89-1.25-1.11-2.32,0-3,1.44a7.47,7.47,0,0,1-13.92-1c-.58-2.07-2.21-2.6-3.43-1.85a6.26,6.26,0,0,0-2.48,4c-.1.68,1.79,2.34,2.84,2.4,2.4.14,4,.84,4.64,3.23.5,1.79,1.55,1.93,3.1,1.1s3.19-1,3.84.9a3.5,3.5,0,0,1-.82,3.2c-1.56,1.15-3,.48-3.94-1.31s-1.89-1.7-3.22-.51a3.73,3.73,0,0,1-5,.46c-1.75-1.24-1.84-2.88-1.33-4.81.67-2.56-1-4.15-3.52-3.58a6.35,6.35,0,0,1-7-2.8,6.74,6.74,0,0,1,.55-7.38,6.64,6.64,0,0,1,7.46-1.77c.78.26,2.14.62,2.4.29a4.41,4.41,0,0,0,1.24-3.13c-.3-1.45-1.6-1.69-3-.91-1.83,1-3.73.83-4.72-1a4.12,4.12,0,0,1,0-3.5,3.75,3.75,0,0,1,3-1.68,4,4,0,0,1,2.92,2.23c.67,2.49,1.63,3.36,4.21,2.61A2.38,2.38,0,0,1,80.34,94a2.41,2.41,0,0,1,.16.95c.13,1.9-1,2.74-2.82,2.87-3.22.24-4.08,1.46-2.71,4a3.09,3.09,0,0,0,2.21,1.4,4,4,0,0,0,2.3-1.25c1.61-1.56,3-3.44,4.72-4.86s1.79-3.31,0-4.54c-3.81-2.58-3.73-5.52.38-7.69a2.71,2.71,0,0,0,1.53-3.51,1.66,1.66,0,0,0-.15-.33c-.89-1.71-2.32-.69-3.47,0-1.81,1.13-3.62,2-3.91,4.67-.22,2.09-2.21,2.79-4.2,2.19A3.41,3.41,0,0,1,76,81.34c4.51.62,7-1,8-5.1.46-2,1.9-3.43,3.84-3.06a6.24,6.24,0,0,1,3.79,2.75c1,1.7.11,3.52-1.64,4.63-3.55,2.23-3.55,2.26-1.17,5.93a3.82,3.82,0,0,1-.52,5.17c-2.72,2.88-2.36,3.82,1.24,5.56,2.08,1,3.08.27,4.36-1.07a2.57,2.57,0,0,0,.53-3.56,7.67,7.67,0,0,1,.9-9.31,7.79,7.79,0,0,1,9.27-2.49,2.49,2.49,0,0,0,3.63-2.26c.09-1.24-1.24-3.73-2.22-3.84-2.74-.44-5.72-2-8.51.46-.5.46-2.65,0-3.17-.75a3.31,3.31,0,0,1,.11-3.28c.77-.65,3.09-.87,3.46-.35,2.17,3,5.41,2,8.18,2.55a3,3,0,0,0,2.14-1.17c1.68-2,3.67-2.63,6-1.48a4.13,4.13,0,0,1,2.19,5.26c-.75,2.56-2.62,3.31-5.22,3.25a4.1,4.1,0,0,0-2.86,1.74,3.1,3.1,0,0,0,.27,2.73,9.57,9.57,0,0,1,1.11,7.78c-.62,2.38,1.24,4,3.65,3.32.61-.17,1.25-.32,1.83-.47,2.49-.63,3-2.31,1.24-4.26a7.71,7.71,0,0,1-.75-9.71,7.53,7.53,0,0,1,9.46-2.2,7.09,7.09,0,0,1,4,6.82c0,3.35,1,4.08,4.14,3a2.87,2.87,0,0,1,3.89,1.2l.08.16c.45,1,.61,2.78,0,3.36a5,5,0,0,1-3.73,1.24c-.77-.07-1.72-1.45-2-2.42-.91-2.9-2.09-3.17-4.54-1.49a12.73,12.73,0,0,1-5.86,2.14c-3.17.24-4,1.14-2.69,4.06,1,2.2.52,4.19-1.4,5.11a3.53,3.53,0,0,1-4.81-1,4.73,4.73,0,0,1-.68-2.25c-.31-3.19-2.31-4.16-5-2.39a7.61,7.61,0,0,1-8.42.57,2.41,2.41,0,0,0-3.35.54l-.14.21c-1,1.14-2.48,2-1.09,3.88.32.41.3,1,.6,1.5.53.81,1.09,2.07,1.79,2.16a3.81,3.81,0,0,0,2.48-1.39A5.11,5.11,0,0,1,105,102a4.87,4.87,0,0,1-3.85,8.82c-2-.38-5.87,2.33-6,4.34,0,.57.51,1.57,1,1.67,2.2.48,4.37,1.49,6.65-.36.88-.72,2.6-.44,3.95-.56.8-.08,1.94.25,2.32-.16a4.44,4.44,0,0,0,.69-2.58c.08-1.59-.46-3.3,0-4.75,1-3.19,4.79-4.29,8.13-2.63,3,1.45,4.52.46,4.45-3.09a5,5,0,0,1,3-5.27,5.19,5.19,0,0,1,6,1c2.73,2.42,2.91,2.38,4.89-.7,1.16-1.78,2.94-2.18,4.39-1A4.14,4.14,0,0,1,141.59,100.47Z"/><path class="cls-2" d="M204.3,102.17c0,2.9-.12,5.8-.36,8.68a4.36,4.36,0,0,1-3.3,3.87L189,117.52a4.36,4.36,0,0,0-3.21,3.3c-.62,2.77-1.38,5.5-2.26,8.18a4.37,4.37,0,0,0,1.05,4.47l8.57,8.4a4.32,4.32,0,0,1,.83,5,101.75,101.75,0,0,1-8,13.69,4.31,4.31,0,0,1-4.78,1.71l-11.46-3.36a4.34,4.34,0,0,0-4.41,1.25q-2.88,3.12-6.08,6a4.35,4.35,0,0,0-1.34,4.4l3.21,11.52a4.35,4.35,0,0,1-1.79,4.72c-2.17,1.47-4.42,2.87-6.74,4.18s-4.69,2.55-7.06,3.66a4.33,4.33,0,0,1-5-.91l-8.31-8.66a4.29,4.29,0,0,0-4.36-1.13c-2.79.88-5.59,1.63-8.44,2.23a4.27,4.27,0,0,0-3.23,3.14l-2.86,11.49a4.28,4.28,0,0,1-3.91,3.23,104.19,104.19,0,0,1-15.9-.11,4.35,4.35,0,0,1-3.87-3.28L86.86,189a4.3,4.3,0,0,0-3.22-3.18,77.65,77.65,0,0,1-8.36-2.29,4.29,4.29,0,0,0-4.38,1.08l-8.39,8.53a4.36,4.36,0,0,1-5,.85,102.26,102.26,0,0,1-13.68-8,4.34,4.34,0,0,1-1.71-4.76l3.31-11.45a4.27,4.27,0,0,0-1.2-4.34q-3.18-2.94-6.11-6.2A4.27,4.27,0,0,0,33.79,158l-11.52,3.21a4.36,4.36,0,0,1-4.76-1.77c-1.47-2.19-2.87-4.44-4.19-6.77s-2.54-4.67-3.64-7.06a4.3,4.3,0,0,1,.9-5l8.65-8.25a4.38,4.38,0,0,0,1.12-4.47,83.32,83.32,0,0,1-2.16-8.25A4.33,4.33,0,0,0,15,116.29l-11.56-3a4.35,4.35,0,0,1-3.24-3.92C.07,107,0,104.54,0,102.12H43.76a58.38,58.38,0,0,0,116.72,2.26v-2.26Z"/><path class="cls-3" d="M204.3,102.17H160.53A58.38,58.38,0,0,0,43.81,99.92v2.25H0q0-4.32.36-8.62a4.31,4.31,0,0,1,3.28-3.86l11.63-2.82a4.26,4.26,0,0,0,3.19-3.22,80.85,80.85,0,0,1,2.28-8.37,4.29,4.29,0,0,0-1.09-4.38L11.1,62.5a4.34,4.34,0,0,1-.85-5,104.22,104.22,0,0,1,8-13.7A4.35,4.35,0,0,1,23,42.1l11.45,3.36a4.34,4.34,0,0,0,4.43-1.28q2.87-3.1,6-5.94a4.35,4.35,0,0,0,1.45-4.44L43.15,22.29a4.33,4.33,0,0,1,1.78-4.74q3.27-2.22,6.76-4.2C54,12,56.41,10.79,58.81,9.68a4.29,4.29,0,0,1,4.93.93L72,19.25a4.35,4.35,0,0,0,4.49,1.11q4-1.29,8.19-2.18A4.32,4.32,0,0,0,88,15.05L91,3.47A4.32,4.32,0,0,1,94.9.26a101.31,101.31,0,0,1,15.87.1,4.3,4.3,0,0,1,3.86,3.27l2.85,11.65a4.29,4.29,0,0,0,3.21,3.17q4.23.94,8.34,2.3a4.28,4.28,0,0,0,4.4-1.08l8.38-8.55a4.36,4.36,0,0,1,5-.84,103.79,103.79,0,0,1,13.69,8,4.35,4.35,0,0,1,1.72,4.78l-3.37,11.43A4.34,4.34,0,0,0,160.1,39q3.14,2.88,6,6.08a4.32,4.32,0,0,0,4.41,1.33L182,43.16a4.34,4.34,0,0,1,4.74,1.76q2.21,3.28,4.2,6.75c1.32,2.32,2.54,4.69,3.66,7.08a4.32,4.32,0,0,1-.91,5L185.07,72a4.27,4.27,0,0,0-1.15,4.37c.88,2.79,1.63,5.63,2.25,8.45A4.27,4.27,0,0,0,189.28,88l11.56,3a4.34,4.34,0,0,1,3.22,3.91Q204.3,98.57,204.3,102.17Z"/><path class="cls-4" d="M308.43,106.8A45.31,45.31,0,0,1,303.5,129a35.13,35.13,0,0,1-13.71,14.19,42,42,0,0,1-39.59,0,35.11,35.11,0,0,1-13.84-14.23,45.64,45.64,0,0,1-5-22.06,45.82,45.82,0,0,1,5-22.1,35.3,35.3,0,0,1,13.73-14.34,41.94,41.94,0,0,1,39.59,0,35.19,35.19,0,0,1,13.81,14.24A45.27,45.27,0,0,1,308.43,106.8Zm-12.79,0a36.82,36.82,0,0,0-3.35-16.53,24.26,24.26,0,0,0-9.19-10.19,26.84,26.84,0,0,0-26.38,0,24.08,24.08,0,0,0-9.17,10.19,36.69,36.69,0,0,0-3.36,16.53,36.51,36.51,0,0,0,3.36,16.5,23.73,23.73,0,0,0,9.17,10.19,26.79,26.79,0,0,0,26.38,0,23.89,23.89,0,0,0,9.19-10.19A36.77,36.77,0,0,0,295.64,106.8Z"/><path class="cls-4" d="M319.47,170.11V82.85h11.47V93.13h1a35,35,0,0,1,2.95-4.58A17.47,17.47,0,0,1,340.22,84a18.15,18.15,0,0,1,9-2,22.71,22.71,0,0,1,13,3.88,25.89,25.89,0,0,1,9,11.2,42.81,42.81,0,0,1,3.27,17.59,43.39,43.39,0,0,1-3.25,17.62,26.19,26.19,0,0,1-8.88,11.29,22.36,22.36,0,0,1-13,4,18.15,18.15,0,0,1-9-2,17,17,0,0,1-5.44-4.56,33.62,33.62,0,0,1-3-4.63h-.69v33.75ZM331,114.59a34,34,0,0,0,1.89,11.71,17.51,17.51,0,0,0,5.33,8,14.4,14.4,0,0,0,17.34-.12,18,18,0,0,0,5.36-8,35.11,35.11,0,0,0,0-22.73,17.53,17.53,0,0,0-5.32-8,14.89,14.89,0,0,0-17.48-.13,16.82,16.82,0,0,0-5.4,7.65A33.75,33.75,0,0,0,331,114.5Z"/><path class="cls-4" d="M428.36,98.42l-10.75,2a14.44,14.44,0,0,0-2.12-4.13,11.13,11.13,0,0,0-3.91-3.2,13.73,13.73,0,0,0-6.15-1.25A14.33,14.33,0,0,0,397,94.19a7,7,0,0,0-2.45,2.53,7.45,7.45,0,0,0-.93,3.48,6.53,6.53,0,0,0,.56,2.86,6.24,6.24,0,0,0,1.71,2.29,17.57,17.57,0,0,0,7.3,3.21l9.72,2.38a25.72,25.72,0,0,1,12.53,6.3,14.81,14.81,0,0,1,3.17,5.07,15.4,15.4,0,0,1,1,6,17.35,17.35,0,0,1-3.15,10.22,21.15,21.15,0,0,1-8.77,7,31.21,31.21,0,0,1-13,2.52A28,28,0,0,1,388,143.46a18.85,18.85,0,0,1-5.28-5.68,19.87,19.87,0,0,1-2.67-7.42l11.46-1.83a11.41,11.41,0,0,0,4.4,7.1,14.41,14.41,0,0,0,8.69,2.4,15.46,15.46,0,0,0,9.34-2.56,7.34,7.34,0,0,0,2.52-2.67,7.85,7.85,0,0,0,1-3.61,6.67,6.67,0,0,0-2.12-5,13.81,13.81,0,0,0-6.47-3.08l-10.32-2.37a24.26,24.26,0,0,1-12.6-6.49,15.65,15.65,0,0,1-3.11-5.22,16.1,16.1,0,0,1-1-6.07,16.81,16.81,0,0,1,3-9.92,20.09,20.09,0,0,1,8.33-6.63A29.32,29.32,0,0,1,405.36,82q9.9,0,15.55,4.47A21.15,21.15,0,0,1,428.36,98.42Z"/><path class="cls-4" d="M440.65,65.45h14.91l25.94,64.27h1l25.86-64.27h14.91v82.62h-11.7V88.26h-.74l-24,59.7h-9.71l-24-59.74h-.76v59.85h-11.7Z"/><path class="cls-4" d="M542.36,87.65,556.2,111.1l14-23.45h13.48L564,117.86l19.77,30.21H570.43l-14.21-22.5-14,22.33H528.78l19.63-30.21L529,87.48Z"/></g></g></svg>